<svg xmlns="http://www.w3.org/2000/svg" viewBox="0 0 150.67 110"><defs><style>.cls-1{fill:#3a4145;}</style></defs><g id="Layer_2" data-name="Layer 2"><g id="Layer_4" data-name="Layer 4"><polygon class="cls-1" points="0 23.18 0 97.67 44.78 60.42 0 23.18"/><path class="cls-1" d="M138.78,0H11.89A12,12,0,0,0,.17,9.87L59.37,59.1l9.87,8.21a9.92,9.92,0,0,0,12.19,0L91.8,58.69,150.5,9.87A12,12,0,0,0,138.78,0Z"/><polygon class="cls-1" points="150.67 97.67 150.67 23.18 105.89 60.42 150.67 97.67"/><path class="cls-1" d="M89.45,74.09l-8,6.67a9.92,9.92,0,0,1-12.19,0L58.9,72.16l-6-5L4.47,107.38A11.86,11.86,0,0,0,11.89,110H138.78a11.86,11.86,0,0,0,7.42-2.62L97.8,67.14Z"/></g></g></svg>